<svg xmlns="http://www.w3.org/2000/svg" width="32" height="32" fill="none" viewBox="0 0 32 32"><circle cx="16" cy="16" r="16" fill="#EA4C89"/><path fill="#fff" stroke="#fff" stroke-width=".2" d="M8.414 16.0176V16.018C8.414 17.9075 9.10741 19.6445 10.2799 20.982C10.71 20.3033 12.8041 17.1908 16.5088 15.995M8.414 16.0176L16.54 16.09M8.414 16.0176V16.0172V16.0167V16.0163V16.0159V16.0155V16.015V16.0146V16.0142V16.0138V16.0133V16.0129V16.0125V16.0121V16.0116V16.0112V16.0108V16.0103V16.0099V16.0095V16.0091V16.0086V16.0082V16.0078V16.0073V16.0069V16.0065V16.006V16.0056V16.0052V16.0047V16.0043V16.0039V16.0034V16.003V16.0026V16.0021V16.0017V16.0012V16.0008V16.0004V15.9999V15.9995V15.9991V15.9986V15.9982V15.9977V15.9973V15.9969V15.9964V15.996V15.9955V15.9951V15.9947V15.9942V15.9938V15.9933V15.9929V15.9924V15.992V15.9916V15.9911V15.9907V15.9902V15.9898V15.9893V15.9889V15.9884V15.988V15.9876V15.9871V15.9867V15.9862V15.9858V15.9853V15.9849V15.9844V15.984V15.9835V15.9831V15.9826V15.9822V15.9817V15.9813V15.9808V15.9804V15.9799V15.9795V15.979V15.9786V15.9781V15.9777V15.9772V15.9767V15.9763V15.9758V15.9754V15.9749V15.9745V15.974V15.9736V15.9731V15.9727V15.9722V15.9717V15.9713V15.9708V15.9704V15.9699V15.9695V15.969V15.9685V15.9681V15.9676V15.9672V15.9667V15.9663V15.9658V15.9653V15.9649V15.9644V15.964V15.9635V15.963V15.9626V15.9621V15.9616V15.9612V15.9607V15.9603V15.9598V15.9593V15.9589V15.9584V15.958V15.9575V15.957V15.9566V15.9561V15.9556V15.9552V15.9547V15.9542V15.9538V15.9533V15.9529V15.9524V15.9519V15.9515V15.951V15.9505V15.9501V15.9496V15.9491V15.9487V15.9482V15.9477V15.9473V15.9468V15.9463V15.9459V15.9454V15.9449V15.9445V15.944V15.9435V15.9431V15.9426V15.9421V15.9416V15.9412V15.9407V15.9402V15.9398V15.9393V15.9388V15.9384V15.9379V15.9374V15.937V15.9365V15.936V15.9355V15.9351V15.9346V15.9341V15.9337V15.9332V15.9327V15.9322V15.9318V15.9313V15.9308V15.9304V15.9299V15.9294V15.9289V15.9285V15.928V15.9275V15.9271V15.9266V15.9261V15.9256V15.9252V15.9247V15.9242V15.9238V15.9233V15.9228V15.9223V15.9219V15.9214V15.9209V15.9204V15.92V15.9195V15.919V15.9185V15.9181V15.9176V15.9171V15.9167V15.9162V15.9157V15.9152V15.9148V15.9143V15.9138V15.9133V15.9129V15.9124V15.9119V15.9114V15.911V15.9105V15.91V15.9095V15.9091V15.9086V15.9081V15.9076V15.9072V15.9067V15.9062V15.9057V15.9053V15.9048V15.9043V15.9038V15.9034V15.9029V15.9024V15.9019V15.9015V15.901V15.9005V15.9001V15.8996V15.8991V15.8986V15.8982V15.8977V15.8972V15.8967V15.8963V15.8958V15.8953V15.8948V15.8944V15.8939V15.8934V15.8929V15.8925V15.892V15.8915V15.891V15.8906V15.8901V15.8896V15.8891V15.8887V15.8882V15.8877V15.8873V16.0176ZM16.5088 15.995C16.509 15.9949 16.5091 15.9949 16.5093 15.9948L16.54 16.09M16.5088 15.995C16.5087 15.995 16.5085 15.9951 16.5084 15.9951L16.54 16.09M16.5088 15.995C16.5599 15.978 16.611 15.9647 16.6568 15.9528C16.6628 15.9513 16.6687 15.9498 16.6745 15.9482C16.6866 15.9451 16.6982 15.942 16.7095 15.939M16.54 16.09C16.5878 16.0741 16.6356 16.0617 16.6818 16.0497C16.7052 16.0436 16.7282 16.0376 16.7505 16.0314C16.7369 16.0005 16.7232 15.9697 16.7095 15.939M16.7095 15.939C16.5366 15.5536 16.3512 15.1802 16.1641 14.8058M16.7095 15.939C16.7452 15.9292 16.7768 15.9197 16.8054 15.9085C16.6187 15.4913 16.4173 15.0887 16.216 14.686M16.1641 14.8058C16.1516 14.7808 16.1391 14.7558 16.1266 14.7307L16.216 14.686L16.216 14.686M16.1641 14.8058C16.191 14.7979 16.2179 14.7899 16.2448 14.7818L16.216 14.686M16.1641 14.8058L16.216 14.686M11.4111 22.0376C11.6949 21.5003 13.2796 18.7856 17.309 17.3677C18.3241 20.0304 18.7694 22.2561 18.8948 23.0126C18.0078 23.3838 17.021 23.586 16 23.586C14.2712 23.586 12.6798 23.0025 11.4111 22.0376ZM16 6.9C10.9768 6.9 6.9 10.9768 6.9 16C6.9 21.0232 10.9768 25.1 16 25.1C21.0051 25.1 25.1 21.0234 25.1 16C25.1 10.9766 21.0051 6.9 16 6.9ZM18.2693 15.2392C18.122 14.8955 17.9736 14.5492 17.8112 14.216C20.3091 13.1829 21.5954 11.7329 21.9415 11.301C22.9348 12.5511 23.5229 14.1032 23.5826 15.8051C22.9953 15.6915 20.7169 15.305 18.4031 15.568C18.3862 15.5267 18.3691 15.4841 18.3518 15.4409L18.3516 15.4402C18.3248 15.3732 18.2974 15.3047 18.2699 15.2406L18.2693 15.2392ZM16 8.432C17.8853 8.432 19.6337 9.13535 20.9582 10.2725C20.6804 10.6333 19.5397 11.9738 17.1081 12.9056C16.0087 10.8928 14.8113 9.21544 14.4041 8.64505C14.3918 8.62789 14.3803 8.61173 14.3695 8.59659C14.8927 8.49133 15.4316 8.432 16 8.432ZM12.692 9.17807C13.0005 9.605 14.2382 11.3579 15.417 13.4342C12.1537 14.281 9.27123 14.3312 8.5832 14.3339C9.11906 12.0525 10.6516 10.1659 12.692 9.17807ZM23.4646 17.2966C23.117 19.3199 21.9708 21.0755 20.3572 22.2011C20.2381 21.5126 19.8228 19.4594 18.9258 16.9807C21.0906 16.6701 22.9846 17.1652 23.4646 17.2966Z"/></svg>