<svg width="24" height="25" viewBox="0 0 24 25" fill="none" xmlns="http://www.w3.org/2000/svg">
<circle opacity="0.5" cx="12" cy="12.5" r="12" fill="#CCD6E6"/>
<path fill-rule="evenodd" clip-rule="evenodd" d="M11.4942 10.5011L11.6032 11.7342C11.6032 11.9512 11.7806 12.1272 12.0001 12.1272C12.2193 12.1272 12.3971 11.9512 12.3971 11.7342L12.5061 10.5011C12.5061 10.2244 12.2796 10 12.0001 10C11.7207 10 11.4942 10.2244 11.4942 10.5011ZM11.5834 15.838C11.6021 15.8551 11.6165 15.8682 11.6233 15.8749C11.7305 15.9567 11.8616 16 12.0026 16C12.1289 16 12.2552 15.9615 12.3573 15.8844C12.4281 15.8349 12.5419 15.7207 12.5419 15.7207C12.9844 15.3164 13.6501 14.3106 13.8641 13.8004C13.8686 13.8004 13.9952 13.4971 14 13.3528V13.3335C14 13.112 13.8737 12.9051 13.6695 12.7993C13.5851 12.7556 13.3783 12.7146 13.2803 12.6951C13.2487 12.6889 13.2284 12.6848 13.2271 12.6837C12.9356 12.6404 12.4883 12.6117 11.9978 12.6117C11.4823 12.6117 11.016 12.6404 10.7292 12.6931C10.7244 12.6931 10.4619 12.7462 10.3745 12.78C10.2482 12.8331 10.141 12.9291 10.0731 13.0495C10.0246 13.1459 10 13.2469 10 13.3528C10.0051 13.4637 10.0778 13.6706 10.112 13.7524C10.3261 14.2913 11.0255 15.3215 11.4533 15.716C11.4978 15.7601 11.5483 15.806 11.5834 15.838Z" fill="#1D304C"/>
</svg>
