<svg xmlns="http://www.w3.org/2000/svg" width="32" height="32" fill="none" viewBox="0 0 32 32"><circle cx="16" cy="16" r="16" fill="#1877F2"/><path fill="#fff" d="M25 16.5C25 11.825 21.175 8 16.5 8C11.825 8 8 11.825 8 16.5C8 20.75 11.0812 24.2563 15.1187 24.8937V18.9437H12.9937V16.5H15.1187V14.5875C15.1187 12.4625 16.3938 11.2938 18.3063 11.2938C19.2625 11.2938 20.2188 11.5063 20.2188 11.5063V13.6313H19.1562C18.0938 13.6313 17.775 14.2688 17.775 14.9062V16.5H20.1125L19.6875 18.9437H17.6688V25C21.9188 24.3625 25 20.75 25 16.5Z"/></svg>