<svg width="62" height="62" viewBox="0 0 62 62" fill="none" xmlns="http://www.w3.org/2000/svg">
<rect width="62" height="62" rx="4" fill="#4AEBAD"/>
<path d="M30.424 48.768C26.808 48.768 24.152 47.856 22.456 46.032C20.76 44.208 19.912 41.184 19.912 36.96C19.912 33.6 20.472 29.984 21.592 26.112C22.744 22.24 24.568 18.928 27.064 16.176C29.592 13.392 32.792 12 36.664 12C39.064 12 41 12.528 42.472 13.584C43.944 14.64 44.68 16.256 44.68 18.432C44.68 19.808 44.408 20.896 43.864 21.696C43.32 22.464 42.472 22.848 41.32 22.848C40.168 22.848 39.256 22.432 38.584 21.6C39.16 21.312 39.672 20.736 40.12 19.872C40.568 19.008 40.792 18.112 40.792 17.184C40.792 16.32 40.552 15.616 40.072 15.072C39.624 14.528 38.888 14.256 37.864 14.256C36.168 14.256 34.552 15.424 33.016 17.76C31.48 20.064 30.232 22.976 29.272 26.496C28.344 30.016 27.88 33.408 27.88 36.672C27.88 39.104 28.296 40.96 29.128 42.24C29.96 43.52 31.464 44.16 33.64 44.16C35.528 44.16 37.272 43.744 38.872 42.912C40.472 42.08 41.848 40.896 43 39.36L44.104 39.84C43.304 41.856 42.12 43.536 40.552 44.88C38.984 46.224 37.304 47.216 35.512 47.856C33.72 48.464 32.024 48.768 30.424 48.768Z" fill="white"/>
</svg>
