<svg width="32" height="32" viewBox="0 0 32 32" fill="none" xmlns="http://www.w3.org/2000/svg">
<circle cx="16" cy="16" r="16" fill="#FC6D26"/>
<path fill-rule="evenodd" clip-rule="evenodd" d="M24.9466 16.9622L24.0024 14.1736C23.9974 14.1479 23.9898 14.1228 23.9796 14.0985L22.0855 8.49363C22.035 8.34903 21.9383 8.22344 21.8092 8.1348C21.6801 8.04615 21.5252 7.99898 21.3665 8.00002C21.2083 7.9991 21.0539 8.04693 20.9261 8.1365C20.7982 8.22606 20.7036 8.35266 20.656 8.49772L18.8506 13.8387H13.1523L11.3442 8.49772C11.2968 8.35316 11.2027 8.22693 11.0754 8.13741C10.9482 8.04788 10.7945 7.99975 10.6369 8.00002H10.6326C10.4738 8.00004 10.3191 8.0482 10.1904 8.13765C10.0617 8.22709 9.96559 8.35327 9.91578 8.49823L8.02005 14.1098C8.02005 14.1128 8.01854 14.1155 8.01696 14.1183L8.01422 14.1241L7.05309 16.9628C6.98247 17.1709 6.98229 17.3953 7.05264 17.6036C7.12295 17.8119 7.26011 17.9934 7.44444 18.122L15.7484 23.9224C15.8215 23.9733 15.9095 24.0005 15.9997 24C16.09 23.9995 16.1777 23.9715 16.2502 23.9199L24.5557 18.122C24.7402 17.9933 24.8774 17.8117 24.9476 17.6033C25.0178 17.3949 25.0175 17.1704 24.9466 16.9622ZM12.2586 13.8387L10.6289 9.0235L9.00508 13.8387H12.2586ZM23.0004 13.8387L21.3739 9.0235L19.7448 13.8387H23.0004ZM12.5342 14.6585L14.8489 21.5069L9.29237 14.6585H12.5342ZM17.154 21.5084L19.3736 14.9428L19.4692 14.6585H22.7137L17.6866 20.8494L17.154 21.5084ZM13.429 14.6555H18.575L16.0001 22.2675L13.429 14.6555ZM7.94415 17.4615C7.90497 17.4341 7.87586 17.3955 7.86096 17.3512C7.84606 17.3069 7.8462 17.2592 7.8613 17.2149L8.57497 15.1067L13.8092 21.5574L7.94415 17.4615ZM18.1911 21.5559L24.0566 17.4615C24.0958 17.434 24.1249 17.3947 24.1397 17.3503C24.1545 17.3059 24.1542 17.2582 24.1389 17.2139L23.4252 15.1067L18.2107 21.5314L18.1911 21.5559Z" fill="white"/>
</svg>
