<svg width="24" height="24" viewBox="0 0 24 24" fill="none" xmlns="http://www.w3.org/2000/svg">
<path fill-rule="evenodd" clip-rule="evenodd" d="M19.19 11.9261C19.19 11.3766 19.1407 10.8482 19.0491 10.3409H11.75V13.3388H15.9209C15.7412 14.3075 15.1952 15.1283 14.3744 15.6778V17.6224H16.8791C18.3445 16.2732 19.19 14.2864 19.19 11.9261Z" fill="#4285F4"/>
<path fill-rule="evenodd" clip-rule="evenodd" d="M11.7499 19.4999C13.8424 19.4999 15.5968 18.8059 16.879 17.6223L14.3744 15.6777C13.6804 16.1427 12.7927 16.4175 11.7499 16.4175C9.73141 16.4175 8.02289 15.0542 7.41345 13.2224H4.82425V15.2303C6.09948 17.7632 8.72039 19.4999 11.7499 19.4999Z" fill="#34A853"/>
<path fill-rule="evenodd" clip-rule="evenodd" d="M7.41352 13.2225C7.25852 12.7575 7.17045 12.2608 7.17045 11.75C7.17045 11.2393 7.25852 10.7425 7.41352 10.2775V8.26959H4.82432C4.29943 9.31584 4 10.4995 4 11.75C4 13.0006 4.29943 14.1843 4.82432 15.2305L7.41352 13.2225Z" fill="#FBBC05"/>
<path fill-rule="evenodd" clip-rule="evenodd" d="M11.7499 7.08239C12.8878 7.08239 13.9094 7.47341 14.7125 8.24136L16.9354 6.01852C15.5932 4.76795 13.8389 4 11.7499 4C8.72039 4 6.09948 5.7367 4.82425 8.26955L7.41345 10.2775C8.02289 8.44568 9.73141 7.08239 11.7499 7.08239Z" fill="#EA4335"/>
</svg>
