<svg xmlns="http://www.w3.org/2000/svg" width="32" height="32" fill="none" viewBox="0 0 32 32"><circle cx="16" cy="16" r="16" fill="url(#paint0_linear_2_343)"/><path fill="#fff" d="M16.3 9.5C18.5 9.5 18.8 9.5 19.7 9.5C20.5 9.5 20.9 9.7 21.2 9.8C21.6 10 21.9 10.1 22.2 10.4C22.5 10.7 22.7 11 22.8 11.4C22.9 11.7 23 12.1 23.1 12.9C23.1 13.8 23.1 14 23.1 16.3C23.1 18.6 23.1 18.8 23.1 19.7C23.1 20.5 22.9 20.9 22.8 21.2C22.6 21.6 22.5 21.9 22.2 22.2C21.9 22.5 21.6 22.7 21.2 22.8C20.9 22.9 20.5 23 19.7 23.1C18.8 23.1 18.6 23.1 16.3 23.1C14 23.1 13.8 23.1 12.9 23.1C12.1 23.1 11.7 22.9 11.4 22.8C11 22.6 10.7 22.5 10.4 22.2C10.1 21.9 9.9 21.6 9.8 21.2C9.7 20.9 9.6 20.5 9.5 19.7C9.5 18.8 9.5 18.6 9.5 16.3C9.5 14 9.5 13.8 9.5 12.9C9.5 12.1 9.7 11.7 9.8 11.4C10 11 10.1 10.7 10.4 10.4C10.7 10.1 11 9.9 11.4 9.8C11.7 9.7 12.1 9.6 12.9 9.5C13.8 9.5 14.1 9.5 16.3 9.5ZM16.3 8C14 8 13.8 8 12.9 8C12 8 11.4 8.2 10.9 8.4C10.4 8.6 9.9 8.9 9.4 9.4C8.9 9.9 8.7 10.3 8.4 10.9C8.2 11.4 8.1 12 8 12.9C8 13.8 8 14.1 8 16.3C8 18.6 8 18.8 8 19.7C8 20.6 8.2 21.2 8.4 21.7C8.6 22.2 8.9 22.7 9.4 23.2C9.9 23.7 10.3 23.9 10.9 24.2C11.4 24.4 12 24.5 12.9 24.6C13.8 24.6 14.1 24.6 16.3 24.6C18.5 24.6 18.8 24.6 19.7 24.6C20.6 24.6 21.2 24.4 21.7 24.2C22.2 24 22.7 23.7 23.2 23.2C23.7 22.7 23.9 22.3 24.2 21.7C24.4 21.2 24.5 20.6 24.6 19.7C24.6 18.8 24.6 18.5 24.6 16.3C24.6 14.1 24.6 13.8 24.6 12.9C24.6 12 24.4 11.4 24.2 10.9C24 10.4 23.7 9.9 23.2 9.4C22.7 8.9 22.3 8.7 21.7 8.4C21.2 8.2 20.6 8.1 19.7 8C18.8 8 18.6 8 16.3 8Z"/><path fill="#fff" d="M16.3 12C13.9 12 12 13.9 12 16.3C12 18.7 13.9 20.6 16.3 20.6C18.7 20.6 20.6 18.7 20.6 16.3C20.6 13.9 18.7 12 16.3 12ZM16.3 19.1C14.8 19.1 13.5 17.9 13.5 16.3C13.5 14.8 14.7 13.5 16.3 13.5C17.8 13.5 19.1 14.7 19.1 16.3C19.1 17.8 17.8 19.1 16.3 19.1Z"/><path fill="#fff" d="M20.7 12.9C21.2523 12.9 21.7 12.4523 21.7 11.9C21.7 11.3477 21.2523 10.9 20.7 10.9C20.1477 10.9 19.7 11.3477 19.7 11.9C19.7 12.4523 20.1477 12.9 20.7 12.9Z"/><path fill="#fff" fill-rule="evenodd" d="M10.8443 8.26074C11.3544 8.05667 11.9742 7.85001 12.9 7.85001H19.7083L19.7165 7.85092C20.6165 7.95092 21.2349 8.0524 21.7557 8.26074L21.7673 8.26538L21.7715 8.26809C22.3704 8.56751 22.7888 8.77672 23.306 9.29394C23.8213 9.80924 24.1322 10.3267 24.3392 10.8443C24.5433 11.3545 24.75 11.9742 24.75 12.9V19.7083L24.7491 19.7166C24.6491 20.6166 24.5476 21.2349 24.3392 21.7557L24.3346 21.7673L24.3319 21.7716C24.0325 22.3704 23.8233 22.7889 23.306 23.3061C22.7907 23.8214 22.2733 24.1322 21.7557 24.3393C21.2455 24.5433 20.6258 24.75 19.7 24.75H12.8917L12.8834 24.7491C11.9834 24.6491 11.3651 24.5476 10.8443 24.3393L10.8327 24.3346L10.8284 24.3319C10.2296 24.0325 9.81113 23.8233 9.29391 23.3061C8.77861 22.7908 8.46774 22.2733 8.2607 21.7557C8.05664 21.2456 7.84998 20.6258 7.84998 19.7V12.8917L7.85089 12.8834C7.95089 11.9834 8.05237 11.3651 8.2607 10.8443L8.26535 10.8327L8.26806 10.8284C8.56748 10.2296 8.77669 9.81116 9.29391 9.29394C9.80921 8.77864 10.3267 8.46777 10.8443 8.26074ZM12.9 8.15001C12.0258 8.15001 11.4455 8.34334 10.9557 8.53928C10.4733 8.73224 9.99074 9.02137 9.50604 9.50607C9.02607 9.98605 8.83472 10.3659 8.53696 10.9614C8.34738 11.4381 8.24926 12.0166 8.14998 12.9083V19.7C8.14998 20.5742 8.34331 21.1544 8.53925 21.6443C8.73221 22.1267 9.02134 22.6092 9.50604 23.0939C9.98602 23.5739 10.3659 23.7653 10.9614 24.063C11.438 24.2526 12.0166 24.3507 12.9083 24.45H19.7C20.5742 24.45 21.1544 24.2567 21.6443 24.0607C22.1267 23.8678 22.6092 23.5786 23.0939 23.0939C23.5739 22.614 23.7652 22.2341 24.063 21.6386C24.2526 21.1619 24.3507 20.5834 24.45 19.6917V12.9C24.45 12.0258 24.2566 11.4456 24.0607 10.9557C23.8677 10.4733 23.5786 9.99077 23.0939 9.50607C22.6139 9.0261 22.234 8.83475 21.6385 8.53699C21.1619 8.34741 20.5834 8.24929 19.6917 8.15001H12.9ZM12.8906 9.35001H19.7C20.4041 9.35001 20.8177 9.50164 21.1048 9.6069C21.1561 9.62569 21.2033 9.643 21.2474 9.6577L21.2575 9.66107L21.2671 9.66584C21.344 9.70431 21.419 9.73969 21.4925 9.77432C21.7831 9.91132 22.0486 10.0365 22.306 10.2939C22.6182 10.6061 22.8353 10.9276 22.9441 11.358C23.0475 11.6694 23.1486 12.0796 23.2488 12.8814L23.25 12.8907V19.7C23.25 20.4041 23.0983 20.8178 22.9931 21.1049C22.9743 21.1561 22.957 21.2033 22.9423 21.2474L22.9389 21.2576L22.9341 21.2671C22.8957 21.344 22.8603 21.4191 22.8257 21.4925C22.6887 21.7831 22.5635 22.0486 22.306 22.3061C21.9939 22.6182 21.6724 22.8353 21.242 22.9441C20.9306 23.0475 20.5204 23.1486 19.7186 23.2488L19.7093 23.25H12.9C12.1958 23.25 11.7822 23.0984 11.4951 22.9931C11.4439 22.9743 11.3967 22.957 11.3525 22.9423L11.3424 22.9389L11.3329 22.9342C11.256 22.8957 11.1809 22.8603 11.1075 22.8257C10.8169 22.6887 10.5514 22.5635 10.2939 22.3061C9.98175 21.9939 9.76465 21.6724 9.65587 21.242C9.55246 20.9306 9.45136 20.5204 9.35113 19.7186L9.34998 19.7093V12.9C9.34998 12.1959 9.50161 11.7823 9.60687 11.4952C9.62566 11.4439 9.64297 11.3967 9.65767 11.3526L9.66104 11.3425L9.66581 11.3329C9.70428 11.256 9.73966 11.1809 9.77429 11.1075C9.91129 10.8169 10.0364 10.5514 10.2939 10.2939C10.6061 9.98178 10.9276 9.76469 11.358 9.6559C11.6694 9.5525 12.0796 9.45139 12.8814 9.35116L12.8906 9.35001ZM12.9093 9.65001C12.122 9.74881 11.7342 9.84672 11.4474 9.94231L11.4365 9.94596C11.0697 10.0376 10.7925 10.2196 10.506 10.5061C10.2886 10.7235 10.1893 10.9333 10.0557 11.2154C10.0201 11.2905 9.98215 11.3708 9.93885 11.4576C9.92345 11.5033 9.90623 11.5504 9.8881 11.6C9.78424 11.8842 9.64998 12.2516 9.64998 12.9V19.6906C9.74878 20.478 9.84669 20.8658 9.94228 21.1526L9.94593 21.1635C10.0376 21.5303 10.2196 21.8075 10.506 22.0939C10.7235 22.3114 10.9332 22.4107 11.2154 22.5443C11.2905 22.5798 11.3707 22.6178 11.4576 22.6611C11.5032 22.6765 11.5503 22.6937 11.6 22.7119C11.8841 22.8157 12.2515 22.95 12.9 22.95H19.6906C20.4779 22.8512 20.8658 22.7533 21.1525 22.6577L21.1635 22.6541C21.5303 22.5624 21.8074 22.3804 22.0939 22.0939C22.3114 21.8765 22.4107 21.6667 22.5442 21.3846C22.5798 21.3095 22.6178 21.2293 22.6611 21.1424C22.6765 21.0968 22.6937 21.0497 22.7119 21C22.8157 20.7158 22.95 20.3485 22.95 19.7V12.9094C22.8512 12.122 22.7533 11.7342 22.6577 11.4474L22.654 11.4365C22.5623 11.0697 22.3804 10.7926 22.0939 10.5061C21.8764 10.2886 21.6667 10.1893 21.3846 10.0557C21.3095 10.0202 21.2292 9.98218 21.1423 9.93888C21.0967 9.92348 21.0496 9.90626 21 9.88813C20.7158 9.78427 20.3484 9.65001 19.7 9.65001H12.9093ZM19.55 11.9C19.55 11.2649 20.0648 10.75 20.7 10.75C21.3351 10.75 21.85 11.2649 21.85 11.9C21.85 12.5351 21.3351 13.05 20.7 13.05C20.0648 13.05 19.55 12.5351 19.55 11.9ZM20.7 11.05C20.2305 11.05 19.85 11.4306 19.85 11.9C19.85 12.3694 20.2305 12.75 20.7 12.75C21.1694 12.75 21.55 12.3694 21.55 11.9C21.55 11.4306 21.1694 11.05 20.7 11.05ZM11.85 16.3C11.85 13.8172 13.8171 11.85 16.3 11.85C18.7828 11.85 20.75 13.8172 20.75 16.3C20.75 18.7828 18.7828 20.75 16.3 20.75C13.8171 20.75 11.85 18.7828 11.85 16.3ZM16.3 12.15C13.9828 12.15 12.15 13.9828 12.15 16.3C12.15 18.6172 13.9828 20.45 16.3 20.45C18.6171 20.45 20.45 18.6172 20.45 16.3C20.45 13.9828 18.6171 12.15 16.3 12.15ZM16.3 13.65C14.7863 13.65 13.65 14.8793 13.65 16.3C13.65 17.8137 14.8793 18.95 16.3 18.95C17.7171 18.95 18.95 17.7172 18.95 16.3C18.95 14.7863 17.7206 13.65 16.3 13.65ZM13.35 16.3C13.35 14.7207 14.6137 13.35 16.3 13.35C17.8793 13.35 19.25 14.6137 19.25 16.3C19.25 17.8828 17.8828 19.25 16.3 19.25C14.7206 19.25 13.35 17.9863 13.35 16.3Z" clip-rule="evenodd"/><defs><linearGradient id="paint0_linear_2_343" x1="6.5" x2="26" y1="2.5" y2="29.5" gradientUnits="userSpaceOnUse"><stop stop-color="#3A3CE4"/><stop offset=".318" stop-color="#AE1B7D"/><stop offset=".646" stop-color="#EE5132"/><stop offset="1" stop-color="#F8D16A"/></linearGradient></defs></svg>