<svg xmlns="http://www.w3.org/2000/svg" width="32" height="32" fill="none" viewBox="0 0 32 32"><circle cx="16" cy="16" r="16" fill="#fff"/><path fill="#000" d="M9.9 12.6406C9.9 12.4375 9.8 12.2344 9.7 12.1328L8.2 10.3047V10H12.8L16.4 18.0234L19.6 10H24V10.3047L22.7 11.5234C22.6 11.625 22.5 11.7266 22.6 11.9297V21.0703C22.6 21.1719 22.6 21.375 22.7 21.4766L23.9 22.6953V23H17.6V22.6953L18.9 21.375C19 21.2734 19 21.1719 19 20.9688V13.5547L15.4 22.7969H15L10.8 13.5547V19.75C10.8 20.0547 10.9 20.2578 11 20.4609L12.7 22.4922V22.7969H8V22.4922L9.7 20.4609C9.9 20.2578 10 20.0547 9.9 19.75V12.6406Z"/></svg>