<svg xmlns="http://www.w3.org/2000/svg" width="32" height="32" fill="none" viewBox="0 0 32 32"><circle cx="16" cy="16" r="16" fill="#D7DFEE"/><path fill="#1D304C" d="M16.7197 18.1318H14.6191C14.625 17.5986 14.6689 17.1416 14.751 16.7607C14.8389 16.3799 14.9824 16.0371 15.1816 15.7324C15.3809 15.4219 15.6504 15.1055 15.9902 14.7832C16.2598 14.5312 16.5 14.2939 16.7109 14.0713C16.9277 13.8428 17.0977 13.6055 17.2207 13.3594C17.3438 13.1074 17.4053 12.8232 17.4053 12.5068C17.4053 12.1494 17.3467 11.8506 17.2295 11.6104C17.1182 11.3701 16.9512 11.1885 16.7285 11.0654C16.5117 10.9365 16.2393 10.8721 15.9111 10.8721C15.6416 10.8721 15.3867 10.9277 15.1465 11.0391C14.9062 11.1504 14.7129 11.3232 14.5664 11.5576C14.4199 11.7861 14.3408 12.085 14.3291 12.4541H12C12.0176 11.6865 12.1992 11.0479 12.5449 10.5381C12.8906 10.0225 13.3564 9.63867 13.9424 9.38672C14.5283 9.12891 15.1846 9 15.9111 9C16.7139 9 17.3994 9.13477 17.9678 9.4043C18.542 9.66797 18.9785 10.0547 19.2773 10.5645C19.582 11.0742 19.7344 11.6895 19.7344 12.4102C19.7344 12.9258 19.6348 13.3887 19.4355 13.7988C19.2363 14.2031 18.9727 14.5811 18.6445 14.9326C18.3164 15.2842 17.9619 15.6387 17.5811 15.9961C17.2471 16.2949 17.0215 16.6143 16.9043 16.9541C16.7871 17.2939 16.7256 17.6865 16.7197 18.1318ZM14.3994 20.8652C14.3994 20.5137 14.5166 20.2207 14.751 19.9863C14.9912 19.752 15.3135 19.6348 15.7178 19.6348C16.1221 19.6348 16.4414 19.752 16.6758 19.9863C16.916 20.2207 17.0361 20.5137 17.0361 20.8652C17.0361 21.2051 16.916 21.4922 16.6758 21.7266C16.4414 21.9609 16.1221 22.0781 15.7178 22.0781C15.3135 22.0781 14.9912 21.9609 14.751 21.7266C14.5166 21.4922 14.3994 21.2051 14.3994 20.8652Z"/></svg>