<svg xmlns="http://www.w3.org/2000/svg" width="32" height="32" fill="none" viewBox="0 0 32 32"><circle cx="16" cy="16" r="16" fill="#3A76F0"/><path fill="#fff" d="M14.4594 7.24814L14.6502 8.02093C13.8982 8.20676 13.1786 8.50472 12.5153 8.90479L12.1072 8.22137C12.8372 7.77927 13.6304 7.45109 14.4594 7.24814ZM18.5406 7.24814L18.3498 8.02093C19.1018 8.20676 19.8214 8.50472 20.4847 8.90479L20.8976 8.22137C20.1657 7.77966 19.371 7.45152 18.5406 7.24814ZM9.22136 11.1048C8.77968 11.8359 8.45153 12.6298 8.24813 13.4594L9.02092 13.6502C9.20675 12.8982 9.50471 12.1786 9.90479 11.5153L9.22136 11.1048ZM8.79633 15.5C8.79627 15.1136 8.82533 14.7277 8.88326 14.3457L8.09599 14.2249C7.968 15.0693 7.968 15.9282 8.09599 16.7727L8.88326 16.6543C8.82542 16.2723 8.79636 15.8864 8.79633 15.5ZM20.8928 22.7762L20.4847 22.0952C19.8225 22.4956 19.1036 22.7936 18.3523 22.9791L18.543 23.7519C19.371 23.547 20.1632 23.218 20.8928 22.7762ZM24.2037 15.5C24.2036 15.8864 24.1746 16.2723 24.1167 16.6543L24.904 16.7727C25.032 15.9282 25.032 15.0693 24.904 14.2249L24.1167 14.3457C24.1747 14.7277 24.2037 15.1136 24.2037 15.5ZM24.7519 17.5382L23.9791 17.3474C23.7937 18.1003 23.4957 18.8208 23.0952 19.4847L23.7786 19.8952C24.2208 19.1635 24.5489 18.3687 24.7519 17.5382ZM17.6543 23.1167C16.8891 23.2327 16.1109 23.2327 15.3457 23.1167L15.2273 23.904C16.0709 24.032 16.9291 24.032 17.7727 23.904L17.6543 23.1167ZM22.7016 20.0691C22.2426 20.6915 21.6922 21.2411 21.0691 21.6992L21.5424 22.3415C22.2287 21.8363 22.8359 21.2315 23.344 20.5472L22.7016 20.0691ZM21.0691 9.29843C21.6923 9.75739 22.2426 10.3078 22.7016 10.9309L23.344 10.4528C22.8377 9.76785 22.2322 9.16228 21.5472 8.65606L21.0691 9.29843ZM10.2984 10.9309C10.7574 10.3078 11.3077 9.75739 11.9309 9.29843L11.4528 8.65606C10.7678 9.16228 10.1623 9.76785 9.65605 10.4528L10.2984 10.9309ZM23.7786 11.1048L23.0952 11.5153C23.4957 12.1775 23.7937 12.8964 23.9791 13.6477L24.7519 13.457C24.5485 12.6281 24.2203 11.835 23.7786 11.1048ZM15.3457 7.88327C16.1109 7.76734 16.8891 7.76734 17.6543 7.88327L17.7727 7.096C16.9291 6.968 16.0709 6.968 15.2273 7.096L15.3457 7.88327ZM10.7065 22.554L9.06197 22.9356L9.44595 21.291L8.67075 21.1099L8.28677 22.7545C8.26275 22.8564 8.25906 22.9621 8.27592 23.0655C8.29279 23.1689 8.32987 23.268 8.38504 23.357C8.44022 23.4461 8.51241 23.5234 8.59749 23.5845C8.68256 23.6456 8.77885 23.6893 8.88085 23.7132C9.00014 23.7398 9.12381 23.7398 9.24309 23.7132L10.8877 23.3341L10.7065 22.554ZM8.83497 20.3999L9.61258 20.5786L9.87822 19.4388C9.49029 18.788 9.20136 18.0832 9.02092 17.3474L8.24813 17.5382C8.42196 18.2425 8.68489 18.9217 9.03058 19.5595L8.83497 20.3999ZM12.554 22.1242L11.4141 22.3898L11.5952 23.1674L12.4332 22.9718C13.0705 23.3186 13.7499 23.5815 14.4545 23.7543L14.6453 22.9815C13.9118 22.7987 13.2095 22.5081 12.5612 22.1194L12.554 22.1242ZM16.5 8.59327C12.6844 8.59568 9.59567 11.6892 9.59567 15.5024C9.59777 16.8012 9.96515 18.0732 10.6558 19.1731L9.99172 22.0083L12.8245 21.3442C16.0532 23.3751 20.318 22.4067 22.349 19.1804C24.38 15.954 23.414 11.6892 20.1876 9.65584C19.0831 8.96126 17.8048 8.59291 16.5 8.59327Z"/></svg>