<svg width="32" height="32" viewBox="0 0 32 32" fill="none" xmlns="http://www.w3.org/2000/svg">
<circle cx="16" cy="16" r="16" fill="#0078D7"/>
<path d="M16.0828 21.2222C13.0552 21.2222 11.7096 19.6667 11.7096 18.5556C11.7096 18.3333 11.8218 18 12.046 17.8889C12.2703 17.6667 12.4945 17.6667 12.7188 17.6667C13.9523 17.6667 13.6159 19.5556 16.0828 19.5556C17.3162 19.5556 17.9891 18.7778 17.9891 18.1111C17.9891 17.6667 17.7648 17.2222 16.9798 17L14.2887 16.3333C12.1582 15.7778 11.8217 14.5556 11.8217 13.5556C11.8217 11.2222 13.9523 10.4444 15.9707 10.4444C17.7648 10.4444 20.0074 11.4444 20.0074 12.7778C20.0074 13.3333 19.5589 13.6667 18.8861 13.6667C17.7648 13.6667 17.9891 12.1111 15.7464 12.1111C14.6251 12.1111 14.0644 12.6667 14.0644 13.3333C14.0644 14 14.9614 14.3333 15.6342 14.4444L17.6527 14.8889C19.7832 15.3333 20.3438 16.6667 20.3438 17.7778C20.3438 19.8889 18.8861 21.2222 16.0828 21.2222ZM24.3807 17.3333C24.4928 16.8889 24.4928 16.3333 24.4928 15.8889C24.4928 13.4444 23.3714 11.1111 21.4652 9.44444C19.5589 7.77778 16.9798 7.22222 14.5129 7.55556C13.8401 7.22222 12.9431 7 12.046 7C10.2519 7 8.56986 8 7.6728 9.55556C6.77573 11.1111 6.77573 13 7.6728 14.5556C7.22427 17.2222 8.00917 20 10.0276 22C11.9338 23.8889 14.7372 24.7778 17.4284 24.3333C18.2133 24.7778 18.9983 25 19.8953 25C21.6895 25 23.3714 24 24.2685 22.4444C25.1656 20.7778 25.2777 18.8889 24.3807 17.3333Z" fill="white"/>
</svg>
