<svg xmlns="http://www.w3.org/2000/svg" width="32" height="32" fill="none" viewBox="0 0 32 32"><circle cx="16" cy="16" r="16" fill="#08C"/><path fill="#fff" d="M7.16866 15.027C11.7321 13.0513 14.775 11.7487 16.2976 11.1194C20.6448 9.32264 21.5481 9.01052 22.1369 9.0001C22.2664 8.99794 22.5559 9.02983 22.7435 9.18106C22.9018 9.30876 22.9454 9.48125 22.9663 9.60232C22.9871 9.72339 23.0131 9.99919 22.9924 10.2147C22.7569 12.6744 21.7375 18.6434 21.2189 21.3983C20.9995 22.564 20.5674 22.9548 20.1492 22.9931C19.2401 23.0762 18.5498 22.3961 17.6694 21.8226C16.2916 20.9251 15.5133 20.3664 14.176 19.4907C12.6305 18.4786 13.6323 17.9224 14.5131 17.0133C14.7436 16.7754 18.7489 13.1552 18.8264 12.8268C18.8361 12.7857 18.8451 12.6326 18.7536 12.5517C18.6621 12.4709 18.527 12.4985 18.4295 12.5205C18.2913 12.5517 16.0904 13.9973 11.8266 16.8573C11.2019 17.2836 10.636 17.4913 10.129 17.4805C9.57012 17.4685 8.49498 17.1664 7.69573 16.9083C6.71541 16.5916 5.93627 16.4242 6.00412 15.8864C6.03946 15.6063 6.42764 15.3198 7.16866 15.027Z"/></svg>