<svg width="16" height="16" viewBox="0 0 16 16" fill="none" xmlns="http://www.w3.org/2000/svg">
<path d="M12.8833 6.31213C12.8833 6.31213 12.5213 10.8021 12.3113 12.6935C12.2113 13.5968 11.6533 14.1261 10.7393 14.1428C8.99994 14.1741 7.25861 14.1761 5.51994 14.1395C4.64061 14.1215 4.09194 13.5855 3.99394 12.6981C3.78261 10.7901 3.42261 6.31213 3.42261 6.31213" stroke="#EB5757" stroke-width="1.2" stroke-linecap="round" stroke-linejoin="round"/>
<path d="M13.8056 4.1598H2.50024" stroke="#EB5757" stroke-width="1.2" stroke-linecap="round" stroke-linejoin="round"/>
<path d="M11.6271 4.1598C11.1038 4.1598 10.6531 3.7898 10.5505 3.27713L10.3885 2.46647C10.2885 2.09247 9.9498 1.8338 9.5638 1.8338H6.7418C6.3558 1.8338 6.01713 2.09247 5.91713 2.46647L5.75513 3.27713C5.65247 3.7898 5.2018 4.1598 4.67847 4.1598" stroke="#EB5757" stroke-width="1.2" stroke-linecap="round" stroke-linejoin="round"/>
</svg>
