<svg width="32" height="32" viewBox="0 0 32 32" fill="none" xmlns="http://www.w3.org/2000/svg">
<circle cx="16" cy="16" r="16" fill="#1DA1F2"/>
<path d="M25 11.5C24.4 11.8 23.8 11.9 23.1 12C23.8 11.6 24.3 11 24.5 10.2C23.9 10.6 23.2 10.8 22.4 11C21.8 10.4 20.9 10 20 10C17.9 10 16.3 12 16.8 14C14.1 13.9 11.7 12.6 10 10.6C9.1 12.1 9.6 14 11 15C10.5 15 10 14.8 9.5 14.6C9.5 16.1 10.6 17.5 12.1 17.9C11.6 18 11.1 18.1 10.6 18C11 19.3 12.2 20.3 13.7 20.3C12.5 21.2 10.7 21.7 9 21.5C10.5 22.4 12.2 23 14 23C20.1 23 23.5 17.9 23.3 13.2C24 12.8 24.6 12.2 25 11.5Z" fill="white"/>
</svg>
