<svg xmlns="http://www.w3.org/2000/svg" width="32" height="32" fill="none" viewBox="0 0 32 32"><circle cx="16" cy="16" r="16" fill="#25D366"/><path fill="#fff" fill-rule="evenodd" d="M22.45 9.44375C20.8563 7.85 18.7312 7 16.5 7C11.825 7 8 10.825 8 15.5C8 16.9875 8.42501 18.475 9.16876 19.75L8 24L12.4625 22.8312C13.7375 23.4688 15.1188 23.8937 16.5 23.8937C21.175 23.8937 25 20.0687 25 15.3937C25 13.1625 24.0438 11.0375 22.45 9.44375ZM16.5 22.5125C15.225 22.5125 13.95 22.1938 12.8875 21.5563L12.675 21.45L10.0187 22.1937L10.7625 19.6437L10.55 19.325C9.80624 18.1562 9.48749 16.8813 9.48749 15.6063C9.48749 11.7813 12.675 8.59375 16.5 8.59375C18.4125 8.59375 20.1125 9.3375 21.4938 10.6125C22.875 11.9937 23.5125 13.6938 23.5125 15.6063C23.5125 19.325 20.4312 22.5125 16.5 22.5125ZM20.325 17.2C20.1125 17.0938 19.05 16.5625 18.8375 16.5625C18.625 16.4563 18.5187 16.4563 18.4125 16.6688C18.3062 16.8813 17.8813 17.3062 17.775 17.5187C17.6688 17.625 17.5625 17.625 17.35 17.625C17.1375 17.5188 16.5 17.3062 15.65 16.5625C15.0125 16.0312 14.5875 15.2875 14.4813 15.075C14.375 14.8625 14.4813 14.7562 14.5875 14.65C14.6938 14.5437 14.8 14.4375 14.9062 14.3312C15.0125 14.225 15.0125 14.1188 15.1188 14.0125C15.225 13.9063 15.1188 13.8 15.1188 13.6938C15.1188 13.5875 14.6938 12.525 14.4813 12.1C14.375 11.7812 14.1625 11.7812 14.0563 11.7812C13.95 11.7812 13.8437 11.7812 13.6312 11.7812C13.525 11.7812 13.3125 11.7812 13.1 11.9937C12.8875 12.2062 12.3563 12.7375 12.3563 13.8C12.3563 14.8625 13.1 15.8188 13.2062 16.0312C13.3125 16.1375 14.6937 18.3687 16.8187 19.2188C18.625 19.9625 18.9438 19.75 19.3688 19.75C19.7938 19.75 20.6438 19.2188 20.75 18.7938C20.9625 18.2625 20.9625 17.8375 20.8563 17.8375C20.75 17.3063 20.5375 17.3063 20.325 17.2Z" clip-rule="evenodd"/></svg>