<svg xmlns="http://www.w3.org/2000/svg" width="32" height="32" fill="none" viewBox="0 0 32 32"><circle cx="16" cy="16" r="16" fill="red"/><path fill="#fff" d="M24.55 11.8214C24.325 11.0714 23.7625 10.5357 22.975 10.3214C21.625 10 15.8875 10 15.8875 10C15.8875 10 10.2625 10 8.80001 10.3214C8.01251 10.5357 7.45 11.0714 7.225 11.8214C7 13.2143 7 16 7 16C7 16 7 18.7857 7.3375 20.1786C7.5625 20.9286 8.125 21.4643 8.9125 21.6786C10.2625 22 16 22 16 22C16 22 21.625 22 23.0875 21.6786C23.875 21.4643 24.4375 20.9286 24.6625 20.1786C25 18.7857 25 16 25 16C25 16 25 13.2143 24.55 11.8214ZM14.2 18.5714V13.4286L18.925 16L14.2 18.5714Z"/></svg>